<svg xmlns="http://www.w3.org/2000/svg" version="1.1" xmlns:xlink="http://www.w3.org/1999/xlink" xmlns:svgjs="http://svgjs.dev/svgjs" viewBox="0 0 1920 1080" class="overflow-hidden rounded-md drop-shadow-lg transition duration-300" style="overflow: hidden; height: 85vh;"><rect width="1920" height="1080" fill="#ff65b3"/><g clip-path="url(&quot;#SvgjsClipPath1077&quot;)"><g transform="matrix(-0.23909844444042375,-1.1248697408438764,1.1248697408438764,-0.23909844444042375,540.8443961043042,1711.531335701177)"><path d="M0,-1080C-3.6347844905137854,-981.4977973195457,-11.50192825599133,-669.2704712027461,-21.80870694308271,-488.9867839172743C-32.11548563017409,-308.7030966318025,-56.47721029299701,-168.64918133781237,-61.840672122548284,1.702123712830712C-67.20413395209955,172.0534287634738,-71.6505243484493,346.5509549098108,-53.98947792039036,533.1210463865842C-36.32843149233142,719.6911378633577,29.91545698127245,947.555459153926,44.12560644580532,1121.1226725734716C58.335755910338186,1294.6898859930172,38.62568660777439,1401.3781056661032,31.27141886680684,1574.5243269038579C23.917151125839286,1747.6705481416125,5.211903144467807,2062.4207211506427,0,2160L 1920 2160 L 1920 -1080 Z" fill="url(&quot;#SvgjsLinearGradient1074&quot;)"/><path d="M640,-1080C633.9358127085909,-988.5161966937118,607.8421027106065,-709.8952165497794,603.6148762515458,-531.0971801622708C599.387649792485,-352.2991437747621,603.5734978385158,-193.06715091567605,614.6366412456354,-7.211781674948185C625.6997846527549,178.64358756577968,673.8199961382094,410.76064352678384,669.9937366942631,584.0350352820964C666.1674772503169,757.3094270374089,596.6877980534615,850.3876948392042,591.6790845819578,1032.4345688569272C586.6703711104541,1214.4814428746502,631.887969962234,1488.3887075312555,639.9414558652411,1676.3162793884344C647.9949417682482,1864.2438512456133,639.9902426442069,2079.386046564739,640,2160L 1920 2160 L 1920 -1080 Z" fill="url(&quot;#SvgjsLinearGradient1075&quot;)"/><path d="M1280,-1080C1278.6135392544977,-1002.1669707359947,1261.8315757211267,-748.3686419864121,1271.6812355269858,-613.0018244159683C1281.530895332845,-477.63500684552446,1332.3548704457946,-389.1204285082499,1339.0979588351543,-267.7990945773374C1345.8410472245139,-146.47776064642494,1315.2559960054634,-18.190938088199403,1312.1397658631438,114.92617916950661C1309.0235357208242,248.04329642721262,1329.0804811403975,397.084844197801,1320.400577981236,530.9036089688987C1311.7206748220744,664.7223737399963,1258.176464549074,784.7017538951843,1260.0603469081743,917.8387677960928C1261.9442292672747,1050.9757816970014,1330.7896292529456,1184.2542047856311,1331.7038721358385,1329.7256923743496C1332.6181150187315,1475.197179963068,1274.1631162281717,1652.2886420574612,1265.545804205532,1790.667693328403C1256.9284921828923,1929.0467445993447,1277.5909673675887,2098.444615554734,1280,2160L 1920 2160 L 1920 -1080 Z" fill="url(&quot;#SvgjsLinearGradient1076&quot;)"/></g></g><defs><linearGradient x1="0.1" y1="0" x2="0" y2="1" id="SvgjsLinearGradient1074"><stop stop-color="#ff65b3" offset="0"/><stop stop-color="#ff65cd" offset="0"/></linearGradient><linearGradient x1="0.1" y1="0" x2="0" y2="1" id="SvgjsLinearGradient1075"><stop stop-color="#fc0080" offset="0"/><stop stop-color="#fc00aa" offset="0.3333333333333333"/></linearGradient><linearGradient x1="0.1" y1="0" x2="0" y2="1" id="SvgjsLinearGradient1076"><stop stop-color="#94004b" offset="0"/><stop stop-color="#940064" offset="0.6666666666666666"/></linearGradient><clipPath id="SvgjsClipPath1077"><rect width="1920" height="1080"/></clipPath></defs></svg>