<svg xmlns="http://www.w3.org/2000/svg" version="1.1" xmlns:xlink="http://www.w3.org/1999/xlink" xmlns:svgjs="http://svgjs.dev/svgjs" viewBox="0 0 1920 1080" class="overflow-hidden rounded-md drop-shadow-lg transition duration-300" style="overflow: hidden; height: 85vh;"><rect width="1920" height="1080" fill="#ff65b3"/><g clip-path="url(&quot;#SvgjsClipPath1133&quot;)"><g transform="matrix(-0.23909844444042375,-1.1248697408438764,1.1248697408438764,-0.23909844444042375,553.1587971708824,1722.7105097196425)"><path d="M0,-1080C-1.4119920967251762,-1016.1076358247951,-14.317347962771379,-823.5911746336163,-8.471952580351058,-696.6458149487707C-2.6265571979307367,-569.7004552639252,37.00315984784902,-460.5042436978447,35.07237229452193,-318.3278418909266C33.14158474119483,-176.15144008400856,-6.466813492460252,23.473272451689184,-20.056677900313616,156.41259589273753C-33.64654230816698,289.3519193337859,-48.88137195423809,344.38056789748066,-46.46681415259826,479.3080987553635C-44.05225635095843,614.2356296132464,-12.896158554019554,814.2458791056026,-5.569331090474634,965.9777810400349C1.7574963730702864,1117.7096829744671,-12.75730667670984,1261.8155265076998,-2.505849371328736,1389.6995103619568C7.745607934052368,1517.5834942162137,55.52177117992387,1604.8982692259028,55.93941274181199,1733.2816841655767C56.35705430370012,1861.6650991052506,9.323235456968666,2088.8802806942626,0,2160L 1920 2160 L 1920 -1080 Z" fill="url(&quot;#SvgjsLinearGradient1131&quot;)"/><path d="M960,-1080C951.1600015441446,-979.5525423386532,908.7239392441102,-655.6827085198743,906.9600092648675,-477.3152540319189C905.1960792856248,-298.9477995439636,949.6451165228003,-176.6532966950951,949.4164201245442,-9.795273072268145C949.187723726288,157.0627505505588,908.090148960486,341.4588728543981,905.5878308753305,523.8328877050428C903.085512790175,706.2069025556875,924.23327841509,903.9058847623336,934.4025116136111,1084.4488160316002C944.5717448121321,1264.991747300867,962.3369820020588,1427.8319446592432,966.603230066457,1607.090475320643C970.8694781308551,1786.3490059820429,961.1005383444095,2067.8484125534405,960,2160L 1920 2160 L 1920 -1080 Z" fill="url(&quot;#SvgjsLinearGradient1132&quot;)"/></g></g><defs><linearGradient x1="0.1" y1="0" x2="0" y2="1" id="SvgjsLinearGradient1131"><stop stop-color="#ff65b3" offset="0"/><stop stop-color="#ff65cd" offset="0"/></linearGradient><linearGradient x1="0.1" y1="0" x2="0" y2="1" id="SvgjsLinearGradient1132"><stop stop-color="#c80065" offset="0"/><stop stop-color="#c80086" offset="0.5"/></linearGradient><clipPath id="SvgjsClipPath1133"><rect width="1920" height="1080"/></clipPath></defs></svg>