<svg xmlns="http://www.w3.org/2000/svg" version="1.1" xmlns:xlink="http://www.w3.org/1999/xlink" xmlns:svgjs="http://svgjs.dev/svgjs" viewBox="0 0 1920 1080" class="overflow-hidden rounded-md drop-shadow-lg transition duration-300" style="overflow: hidden; height: 85vh;"><rect width="1920" height="1080" fill="#ff65b3"/><g clip-path="url(&quot;#SvgjsClipPath1057&quot;)"><g transform="matrix(-0.10022910415980697,-1.1456239028055073,1.1456239028055073,-0.10022910415980697,421.89627922883165,1677.588683578177)"><path d="M0,-1080C-4.591114398584892,-999.5669147919797,-34.1973825137927,-741.6582887357221,-27.546686391509354,-597.401488751878C-20.895990269226015,-453.1446887680339,28.412996966269667,-372.93831884881376,39.90417673370004,-214.45920009693538C51.395356501130415,-55.980081345057016,49.02629408165738,182.49090237629989,41.40039221307288,353.47322375939217C33.77449034448837,524.4555451424844,-5.97575976034327,654.1476459004707,-5.851234477806997,811.4347282016183C-5.7267091952707245,968.721810502766,34.586927342442145,1144.9269506336038,42.147543908290515,1297.1957175662778C49.708160474138886,1449.4644844989518,46.53705556866496,1581.2466160587092,39.51246491728321,1725.0473297976628C32.48787426590146,1868.8480435366164,6.585410819547202,2087.5078882996104,0,2160L 1920 2160 L 1920 -1080 Z" fill="url(&quot;#SvgjsLinearGradient1053&quot;)"/><path d="M480,-1080C489.9918693368771,-1012.6905668433081,532.2521113696326,-821.6825861100144,539.9512160212626,-676.1434010598488C547.6503206728925,-530.6042160096831,533.2386278642191,-376.5639327545545,526.1946279097795,-206.76488969900592C519.1506279553398,-36.965846643457326,498.02937273695704,173.10133617035942,497.68721629462436,342.6508572734427C497.3450598522917,512.2003783765259,531.5986926167197,672.5099323409959,524.1416892557834,810.5322369194937C516.684685894847,948.5545414979915,451.9179593668284,1017.1701605622762,452.9451961290064,1170.7846847444293C453.9724328911843,1324.3992089265823,525.7959758503521,1567.3501628031504,530.305109828851,1732.219382012412C534.8142438073498,1897.0886012216738,488.3841849714752,2088.703230335402,480,2160L 1920 2160 L 1920 -1080 Z" fill="url(&quot;#SvgjsLinearGradient1054&quot;)"/><path d="M960,-1080C956.3675184579686,-1006.7755929986221,928.0052638546338,-793.2998241790983,938.2051107478114,-640.6535579917324C948.4049576409891,-488.00729180436656,1016.6783828782643,-329.6329998813287,1021.199081359066,-164.12240287580445C1025.7197798398677,1.3881941297198352,973.1532717660249,193.4702998550679,965.3293016326218,352.4100240414133C957.5053314992186,511.3497482277587,974.6671954064908,646.9561032339834,974.2552605586474,789.5159422422678C973.8433257108039,932.0757812505522,967.2551944169263,1062.2271152844946,962.8576925455612,1207.7690580911194C958.4601906741962,1353.3110008977442,948.3465314213834,1504.0624420972028,947.8702493304565,1662.7675990820162C947.3939672395297,1821.4727560668296,957.9783748884095,2077.127933180336,960,2160L 1920 2160 L 1920 -1080 Z" fill="url(&quot;#SvgjsLinearGradient1055&quot;)"/><path d="M1440,-1080C1449.6252533420807,-961.7432495943619,1489.7914527100934,-590.7509444897095,1497.7515200524847,-370.459497566172C1505.711587394876,-150.16805064263448,1502.943383126913,44.81573570976721,1487.7604040543486,241.7486815412251C1472.5774249817841,438.681627372683,1414.6462464006922,592.5152955014255,1406.6536456170984,811.1381774225753C1398.6610448335045,1029.761059343725,1434.2470736223024,1328.6756693052196,1439.804799352786,1553.4859730681237C1445.3625250832695,1778.2962768310279,1439.9674665587977,2058.914328844687,1440,2160L 1920 2160 L 1920 -1080 Z" fill="url(&quot;#SvgjsLinearGradient1056&quot;)"/></g></g><defs><linearGradient x1="0.1" y1="0" x2="0" y2="1" id="SvgjsLinearGradient1053"><stop stop-color="#ff65b3" offset="0"/><stop stop-color="#ff65cd" offset="0"/></linearGradient><linearGradient x1="0.1" y1="0" x2="0" y2="1" id="SvgjsLinearGradient1054"><stop stop-color="#ff97cb" offset="0"/><stop stop-color="#ff97dc" offset="0.25"/></linearGradient><linearGradient x1="0.1" y1="0" x2="0" y2="1" id="SvgjsLinearGradient1055"><stop stop-color="#ffc8e4" offset="0"/><stop stop-color="#ffc8ed" offset="0.5"/></linearGradient><linearGradient x1="0.1" y1="0" x2="0" y2="1" id="SvgjsLinearGradient1056"><stop stop-color="#fffafc" offset="0"/><stop stop-color="#fffafd" offset="0.75"/></linearGradient><clipPath id="SvgjsClipPath1057"><rect width="1920" height="1080"/></clipPath></defs></svg>